<mxfile host="app.diagrams.net" modified="2024-03-02T15:08:49.402Z" agent="Mozilla/5.0 (Windows NT 10.0; Win64; x64) AppleWebKit/537.36 (KHTML, like Gecko) Chrome/121.0.0.0 Safari/537.36" etag="2FwHqRMInPT7WS9GiHxG" version="24.0.0" type="device">
  <diagram id="C5RBs43oDa-KdzZeNtuy" name="Page-1">
    <mxGraphModel dx="882" dy="1665" grid="1" gridSize="10" guides="1" tooltips="1" connect="1" arrows="1" fold="1" page="1" pageScale="1" pageWidth="827" pageHeight="1169" math="0" shadow="0">
      <root>
        <mxCell id="WIyWlLk6GJQsqaUBKTNV-0" />
        <mxCell id="WIyWlLk6GJQsqaUBKTNV-1" parent="WIyWlLk6GJQsqaUBKTNV-0" />
        <mxCell id="VBHruSy8RBl3R41CxMAp-0" value="Allocation&lt;div&gt;&lt;br&gt;&lt;/div&gt;" style="swimlane;fontStyle=1;align=center;verticalAlign=top;childLayout=stackLayout;horizontal=1;startSize=26;horizontalStack=0;resizeParent=1;resizeParentMax=0;resizeLast=0;collapsible=1;marginBottom=0;whiteSpace=wrap;html=1;" vertex="1" parent="WIyWlLk6GJQsqaUBKTNV-1">
          <mxGeometry x="104" y="490" width="310" height="310" as="geometry" />
        </mxCell>
        <mxCell id="VBHruSy8RBl3R41CxMAp-1" value="- size: long&lt;div&gt;- startingAdress: long&lt;/div&gt;" style="text;strokeColor=none;fillColor=none;align=left;verticalAlign=top;spacingLeft=4;spacingRight=4;overflow=hidden;rotatable=0;points=[[0,0.5],[1,0.5]];portConstraint=eastwest;whiteSpace=wrap;html=1;" vertex="1" parent="VBHruSy8RBl3R41CxMAp-0">
          <mxGeometry y="26" width="310" height="144" as="geometry" />
        </mxCell>
        <mxCell id="VBHruSy8RBl3R41CxMAp-2" value="" style="line;strokeWidth=1;fillColor=none;align=left;verticalAlign=middle;spacingTop=-1;spacingLeft=3;spacingRight=3;rotatable=0;labelPosition=right;points=[];portConstraint=eastwest;strokeColor=inherit;" vertex="1" parent="VBHruSy8RBl3R41CxMAp-0">
          <mxGeometry y="170" width="310" height="8" as="geometry" />
        </mxCell>
        <mxCell id="VBHruSy8RBl3R41CxMAp-3" value="+ equals(Object): boolean&lt;div&gt;+ hashCode(): int&lt;/div&gt;&lt;div&gt;+Allocation(long, long):Allocation&lt;/div&gt;&lt;div&gt;+getStartingAdress(): long&lt;/div&gt;&lt;div&gt;+ getSize(): long&lt;/div&gt;&lt;div&gt;+compareTo(Object): int&lt;/div&gt;&lt;div&gt;&lt;br&gt;&lt;/div&gt;&lt;div&gt;&lt;br&gt;&lt;/div&gt;" style="text;strokeColor=none;fillColor=none;align=left;verticalAlign=top;spacingLeft=4;spacingRight=4;overflow=hidden;rotatable=0;points=[[0,0.5],[1,0.5]];portConstraint=eastwest;whiteSpace=wrap;html=1;" vertex="1" parent="VBHruSy8RBl3R41CxMAp-0">
          <mxGeometry y="178" width="310" height="132" as="geometry" />
        </mxCell>
        <mxCell id="VBHruSy8RBl3R41CxMAp-4" value="AllocationNode" style="swimlane;fontStyle=1;align=center;verticalAlign=top;childLayout=stackLayout;horizontal=1;startSize=26;horizontalStack=0;resizeParent=1;resizeParentMax=0;resizeLast=0;collapsible=1;marginBottom=0;whiteSpace=wrap;html=1;" vertex="1" parent="WIyWlLk6GJQsqaUBKTNV-1">
          <mxGeometry x="175" y="90" width="230" height="188" as="geometry" />
        </mxCell>
        <mxCell id="VBHruSy8RBl3R41CxMAp-5" value="+ Allocation_Instance: Allocation&lt;div&gt;- AllocationNextNode: AllocationNode&lt;/div&gt;" style="text;strokeColor=none;fillColor=none;align=left;verticalAlign=top;spacingLeft=4;spacingRight=4;overflow=hidden;rotatable=0;points=[[0,0.5],[1,0.5]];portConstraint=eastwest;whiteSpace=wrap;html=1;" vertex="1" parent="VBHruSy8RBl3R41CxMAp-4">
          <mxGeometry y="26" width="230" height="54" as="geometry" />
        </mxCell>
        <mxCell id="VBHruSy8RBl3R41CxMAp-6" value="" style="line;strokeWidth=1;fillColor=none;align=left;verticalAlign=middle;spacingTop=-1;spacingLeft=3;spacingRight=3;rotatable=0;labelPosition=right;points=[];portConstraint=eastwest;strokeColor=inherit;" vertex="1" parent="VBHruSy8RBl3R41CxMAp-4">
          <mxGeometry y="80" width="230" height="58" as="geometry" />
        </mxCell>
        <mxCell id="VBHruSy8RBl3R41CxMAp-7" value="+getNextNode(): AllocationNode&lt;div&gt;+getStartingAdress(): long&lt;/div&gt;&lt;div&gt;+ getSize(): long&lt;/div&gt;" style="text;strokeColor=none;fillColor=none;align=left;verticalAlign=top;spacingLeft=4;spacingRight=4;overflow=hidden;rotatable=0;points=[[0,0.5],[1,0.5]];portConstraint=eastwest;whiteSpace=wrap;html=1;" vertex="1" parent="VBHruSy8RBl3R41CxMAp-4">
          <mxGeometry y="138" width="230" height="50" as="geometry" />
        </mxCell>
        <mxCell id="VBHruSy8RBl3R41CxMAp-11" value="AllocationList" style="swimlane;fontStyle=1;align=center;verticalAlign=top;childLayout=stackLayout;horizontal=1;startSize=26;horizontalStack=0;resizeParent=1;resizeParentMax=0;resizeLast=0;collapsible=1;marginBottom=0;whiteSpace=wrap;html=1;" vertex="1" parent="WIyWlLk6GJQsqaUBKTNV-1">
          <mxGeometry x="170" y="-150" width="240" height="130" as="geometry" />
        </mxCell>
        <mxCell id="VBHruSy8RBl3R41CxMAp-12" value="+ headAllocationList: AllocationNode&amp;nbsp;" style="text;strokeColor=none;fillColor=none;align=left;verticalAlign=top;spacingLeft=4;spacingRight=4;overflow=hidden;rotatable=0;points=[[0,0.5],[1,0.5]];portConstraint=eastwest;whiteSpace=wrap;html=1;" vertex="1" parent="VBHruSy8RBl3R41CxMAp-11">
          <mxGeometry y="26" width="240" height="44" as="geometry" />
        </mxCell>
        <mxCell id="VBHruSy8RBl3R41CxMAp-13" value="" style="line;strokeWidth=1;fillColor=none;align=left;verticalAlign=middle;spacingTop=-1;spacingLeft=3;spacingRight=3;rotatable=0;labelPosition=right;points=[];portConstraint=eastwest;strokeColor=inherit;" vertex="1" parent="VBHruSy8RBl3R41CxMAp-11">
          <mxGeometry y="70" width="240" height="8" as="geometry" />
        </mxCell>
        <mxCell id="VBHruSy8RBl3R41CxMAp-14" value="+ addNode(AllocationNode): void&lt;div&gt;+ removeNode(AllocationNode): void&lt;/div&gt;" style="text;strokeColor=none;fillColor=none;align=left;verticalAlign=top;spacingLeft=4;spacingRight=4;overflow=hidden;rotatable=0;points=[[0,0.5],[1,0.5]];portConstraint=eastwest;whiteSpace=wrap;html=1;" vertex="1" parent="VBHruSy8RBl3R41CxMAp-11">
          <mxGeometry y="78" width="240" height="52" as="geometry" />
        </mxCell>
        <mxCell id="VBHruSy8RBl3R41CxMAp-19" value="1" style="endArrow=open;html=1;endSize=12;startArrow=diamondThin;startSize=14;startFill=1;edgeStyle=orthogonalEdgeStyle;align=left;verticalAlign=bottom;rounded=0;entryX=0.434;entryY=0.021;entryDx=0;entryDy=0;entryPerimeter=0;exitX=0.58;exitY=1.014;exitDx=0;exitDy=0;exitPerimeter=0;" edge="1" parent="WIyWlLk6GJQsqaUBKTNV-1" source="VBHruSy8RBl3R41CxMAp-7">
          <mxGeometry x="-1" y="3" relative="1" as="geometry">
            <mxPoint x="310" y="290" as="sourcePoint" />
            <mxPoint x="309.43999999999994" y="489.9999999999998" as="targetPoint" />
          </mxGeometry>
        </mxCell>
        <mxCell id="VBHruSy8RBl3R41CxMAp-21" value="" style="endArrow=block;endFill=1;html=1;edgeStyle=orthogonalEdgeStyle;align=left;verticalAlign=top;rounded=0;exitX=0.565;exitY=0;exitDx=0;exitDy=0;exitPerimeter=0;" edge="1" parent="WIyWlLk6GJQsqaUBKTNV-1" source="VBHruSy8RBl3R41CxMAp-4">
          <mxGeometry x="-1" relative="1" as="geometry">
            <mxPoint x="460" y="60" as="sourcePoint" />
            <mxPoint x="300" y="-20" as="targetPoint" />
            <Array as="points">
              <mxPoint x="300" y="30" />
              <mxPoint x="300" y="30" />
            </Array>
          </mxGeometry>
        </mxCell>
        <mxCell id="VBHruSy8RBl3R41CxMAp-22" value="n" style="edgeLabel;resizable=0;html=1;align=left;verticalAlign=bottom;" connectable="0" vertex="1" parent="VBHruSy8RBl3R41CxMAp-21">
          <mxGeometry x="-1" relative="1" as="geometry" />
        </mxCell>
        <mxCell id="VBHruSy8RBl3R41CxMAp-23" value="1" style="text;html=1;align=center;verticalAlign=middle;resizable=0;points=[];autosize=1;strokeColor=none;fillColor=none;" vertex="1" parent="WIyWlLk6GJQsqaUBKTNV-1">
          <mxGeometry x="295" y="-22" width="30" height="30" as="geometry" />
        </mxCell>
        <mxCell id="VBHruSy8RBl3R41CxMAp-24" value="&lt;p style=&quot;margin:0px;margin-top:4px;text-align:center;&quot;&gt;&lt;i&gt;&amp;lt;&amp;lt;Interface&amp;gt;&amp;gt;&lt;/i&gt;&lt;br&gt;&lt;b&gt;Iterator&lt;/b&gt;&lt;/p&gt;&lt;hr size=&quot;1&quot; style=&quot;border-style:solid;&quot;&gt;&lt;p style=&quot;margin:0px;margin-left:4px;&quot;&gt;+ field1: Type&lt;br&gt;+ field2: Type&lt;/p&gt;&lt;hr size=&quot;1&quot; style=&quot;border-style:solid;&quot;&gt;&lt;p style=&quot;margin:0px;margin-left:4px;&quot;&gt;+ hastNext(): boolean&lt;br&gt;+ next(): AllocationNode&lt;/p&gt;" style="verticalAlign=top;align=left;overflow=fill;html=1;whiteSpace=wrap;" vertex="1" parent="WIyWlLk6GJQsqaUBKTNV-1">
          <mxGeometry x="590" y="-155" width="190" height="140" as="geometry" />
        </mxCell>
        <mxCell id="VBHruSy8RBl3R41CxMAp-25" value="" style="endArrow=block;dashed=1;endFill=0;endSize=12;html=1;rounded=0;entryX=0.007;entryY=0.452;entryDx=0;entryDy=0;entryPerimeter=0;" edge="1" parent="WIyWlLk6GJQsqaUBKTNV-1" target="VBHruSy8RBl3R41CxMAp-24">
          <mxGeometry width="160" relative="1" as="geometry">
            <mxPoint x="410" y="-90" as="sourcePoint" />
            <mxPoint x="570" y="-90" as="targetPoint" />
          </mxGeometry>
        </mxCell>
      </root>
    </mxGraphModel>
  </diagram>
</mxfile>
